<svg width="31" height="31" viewBox="0 0 31 31" fill="none" xmlns="http://www.w3.org/2000/svg">
<g clip-path="url(#clip0)">
<path d="M22.232 5.08068C22.2043 4.83029 22.0477 4.60758 21.8197 4.49212L15.8399 1.46257C15.6261 1.35423 15.3736 1.35423 15.1598 1.46257L9.17977 4.49192C8.92688 4.62002 8.76747 4.87944 8.76747 5.16304V5.16314V5.16324V10.2103L0.429194 14.2664C0.178805 14.3855 0.0140859 14.6326 0.000643579 14.9096C-0.0127988 15.1866 0.127243 15.4485 0.364992 15.5911L5.62266 18.7459V24.2571C5.62266 24.541 5.78247 24.8007 6.03576 24.9286L15.1605 29.5378C15.2672 29.5916 15.3835 29.6186 15.4998 29.6186C15.6161 29.6186 15.7323 29.5916 15.8391 29.5378L24.9637 24.9286C25.217 24.8007 25.3768 24.541 25.3768 24.2571V18.7459L30.6345 15.5911C30.8723 15.4485 31.0124 15.1866 30.9989 14.9096C30.9855 14.6326 30.8209 14.3855 30.5705 14.2665L22.232 10.2099V5.08068ZM22.9577 12.2686L22.2321 12.633V11.899L22.9577 12.2686ZM15.4999 2.97715L19.8149 5.16324L15.4999 7.34923L11.1847 5.16304L15.4999 2.97715ZM8.76737 11.8991V12.6328L8.04209 12.2686L8.76737 11.8991ZM2.34283 15.0231L6.3659 13.111L13.9947 16.9411L9.95181 19.5889L2.34283 15.0231ZM14.7475 27.6434L7.1275 23.7943V19.6489L9.58234 21.1219C9.70162 21.1936 9.83564 21.2292 9.96946 21.2292C10.1132 21.2292 10.2567 21.188 10.3817 21.1062L14.7475 18.2469V27.6434ZM15.4999 16.0128L10.2722 13.3883V6.38759L15.1599 8.8638C15.2668 8.91797 15.3833 8.94506 15.5 8.94506C15.6166 8.94506 15.7331 8.91797 15.8401 8.8638L20.7275 6.38779V13.3884L15.4999 16.0128ZM23.8722 23.7943L16.2523 27.6434V18.247L20.6179 21.1063C20.7429 21.1881 20.8865 21.2293 21.0301 21.2293C21.1639 21.2293 21.298 21.1937 21.4172 21.122L23.8722 19.6489V23.7943ZM21.0476 19.5889L17.0047 16.9411L24.6336 13.1109L28.6568 15.023L21.0476 19.5889Z" fill="#83B0FA"/>
</g>
<defs>
<clipPath id="clip0">
<rect width="31" height="31" fill="white"/>
</clipPath>
</defs>
</svg>
